# xmcd CD database file
#
# Track frame offsets:
#	150
#	23212
#	41915
#	62897
#	88770
#	111267
#	130270
#	149075
#	158125
#	179625
#	201510
#
# Disc length: 2929 seconds
#
# Revision: 0
# Processed by: cddbd v1.5.2PL0 Copyright (c) Steve Scherf et al.
# Submitted via: CDex 1.70beta2
#
DISCID=ae0b6f0b
DTITLE=赤木りえ - ラストシーン
DYEAR=2000
DGENRE=Jazz
TTITLE0=コンチネンタル
TTITLE1=星に願いを
TTITLE2=You Light Up My Life
TTITLE3=酒とバラの日々
TTITLE4=いそしぎ
TTITLE5=日曜はダメよ
TTITLE6=風のささやき
TTITLE7=チム・チム・チェリー
TTITLE8=Born Free
TTITLE9=虹のかなたに
TTITLE10=Evergreen
EXTD=YEAR: 2000
EXTT0=
EXTT1=
EXTT2=
EXTT3=
EXTT4=
EXTT5=
EXTT6=
EXTT7=
EXTT8=
EXTT9=
EXTT10=
PLAYORDER=
